<mxfile host="app.diagrams.net" modified="2023-05-19T08:19:49.841Z" agent="Mozilla/5.0 (Windows NT 10.0; Win64; x64) AppleWebKit/537.36 (KHTML, like Gecko) Chrome/113.0.0.0 Safari/537.36" etag="MVh3SzombA-okjNc_Cau" version="21.3.2" type="github">
  <diagram name="Страница 1" id="NjRQrOxZWbK3Gp8KHzT5">
    <mxGraphModel dx="1434" dy="796" grid="1" gridSize="10" guides="1" tooltips="1" connect="1" arrows="1" fold="1" page="1" pageScale="1" pageWidth="827" pageHeight="1169" math="0" shadow="0">
      <root>
        <mxCell id="0" />
        <mxCell id="1" parent="0" />
        <mxCell id="JWEkcbUGg6wO3BvkbT62-3" value="" style="edgeStyle=orthogonalEdgeStyle;rounded=0;orthogonalLoop=1;jettySize=auto;html=1;" edge="1" parent="1" source="JWEkcbUGg6wO3BvkbT62-1" target="JWEkcbUGg6wO3BvkbT62-2">
          <mxGeometry relative="1" as="geometry" />
        </mxCell>
        <mxCell id="JWEkcbUGg6wO3BvkbT62-1" value="Включить лампу" style="strokeWidth=2;html=1;shape=mxgraph.flowchart.terminator;whiteSpace=wrap;" vertex="1" parent="1">
          <mxGeometry x="300" y="40" width="130" height="80" as="geometry" />
        </mxCell>
        <mxCell id="JWEkcbUGg6wO3BvkbT62-5" value="" style="edgeStyle=orthogonalEdgeStyle;rounded=0;orthogonalLoop=1;jettySize=auto;html=1;" edge="1" parent="1" source="JWEkcbUGg6wO3BvkbT62-2" target="JWEkcbUGg6wO3BvkbT62-4">
          <mxGeometry relative="1" as="geometry" />
        </mxCell>
        <mxCell id="JWEkcbUGg6wO3BvkbT62-2" value="Вставить вилку в розетку" style="whiteSpace=wrap;html=1;strokeWidth=2;" vertex="1" parent="1">
          <mxGeometry x="305" y="200" width="120" height="60" as="geometry" />
        </mxCell>
        <mxCell id="JWEkcbUGg6wO3BvkbT62-7" value="" style="edgeStyle=orthogonalEdgeStyle;rounded=0;orthogonalLoop=1;jettySize=auto;html=1;" edge="1" parent="1" source="JWEkcbUGg6wO3BvkbT62-4">
          <mxGeometry relative="1" as="geometry">
            <mxPoint x="365" y="480" as="targetPoint" />
          </mxGeometry>
        </mxCell>
        <mxCell id="JWEkcbUGg6wO3BvkbT62-4" value="Нажать кнопку включения" style="whiteSpace=wrap;html=1;strokeWidth=2;" vertex="1" parent="1">
          <mxGeometry x="305" y="350" width="120" height="60" as="geometry" />
        </mxCell>
        <mxCell id="JWEkcbUGg6wO3BvkbT62-8" value="Конец" style="strokeWidth=2;html=1;shape=mxgraph.flowchart.terminator;whiteSpace=wrap;" vertex="1" parent="1">
          <mxGeometry x="300" y="480" width="130" height="80" as="geometry" />
        </mxCell>
      </root>
    </mxGraphModel>
  </diagram>
</mxfile>
